Coordinates
version=1
nRows=19
nColumns=33
inDegrees=yes

Units are S.I. units (second, meters, Newtons, ...)
Angles are in degrees.

endheader
time	ground_thorax_rot_x	ground_thorax_rot_y	ground_thorax_rot_z	ground_thorax_tx	ground_thorax_ty	ground_thorax_tz	clav_prot_r	clav_elev_r	scapula_abduction_r	scapula_elevation_r	scapula_upward_rot_r	scapula_winging_r	shoulder_elv_r	plane_of_elev_r	axial_rot_r	elbow_flexion_r	pro_sup_r	wrist_flex_r	wrist_dev_r	clav_prot_l	clav_elev_l	scapula_abduction_l	scapula_elevation_l	scapula_upward_rot_l	scapula_winging_l	shoulder_elv_l	plane_of_elev_l	axial_rot_l	elbow_flexion_l	pro_sup_l	wrist_flex_l	wrist_dev_l
      1.82000000	     38.98068874	     11.57872804	     12.08974965	   -234.92927448	    816.83594714	      5.01327728	     15.63049372	     37.86726732	     38.29840074	     45.00000000	    -45.00000000	   2072.53837554	  -1909.18014545	    149.10833645	   -111.61900436	    744.68959171	    159.86918227	     13.47777765	      5.27450858	      9.90575340	    -45.00000000	    -36.37682236	     45.00000000	    -45.00000000	  -1700.68516152	  -1727.17222247	     23.02124097	    -18.58566429	   1443.91018934	   -338.58119677	     10.51553653	    -22.44331265
      1.83000000	     38.87203606	     11.61539975	     12.29348272	   -234.85281557	    816.09968337	      4.99324930	     15.56218771	     37.89056638	     38.11976823	     45.00000000	    -45.00000000	   2072.76412176	  -1909.04350196	    149.23463605	   -111.57362382	    744.86462674	    159.75514383	     13.53733211	      5.20672781	      9.80395835	    -45.00000000	    -36.35836680	     45.00000000	    -45.00000000	  -1700.67142781	  -1727.20068682	     22.93683956	    -18.82708104	   1444.00209394	   -337.85732027	     10.26292973	    -22.47263461
      1.84000000	     38.75346183	     11.68930397	     12.50653257	   -234.54278434	    815.40271276	      4.99586144	     15.59667577	     37.84895190	     38.15011743	     45.00000000	    -45.00000000	   2072.76553819	  -1909.17309795	    149.25566821	   -111.58884067	    744.74323666	    159.65895119	     13.54491425	      5.25874382	      9.91607156	    -45.00000000	    -36.26883670	     45.00000000	    -45.00000000	  -1700.76217770	  -1727.13413582	     22.95650928	    -18.99588717	   1443.99699563	   -337.26447676	     10.03361194	    -22.50639307
      1.85000000	     38.66437441	     11.61522415	     12.60277524	   -234.02803298	    814.75901627	      5.02113614	     15.61394863	     37.89339291	     38.08347317	     45.00000000	    -45.00000000	   2072.90324079	  -1909.18003829	    149.32519680	   -111.49492278	    744.83670559	    159.53591883	     13.56374407	      5.24353262	      9.91166977	    -45.00000000	    -36.36654807	     45.00000000	    -45.00000000	  -1700.83991134	  -1727.16823489	     22.93272914	    -19.07289621	   1444.14090901	   -336.73361025	      9.81167891	    -22.55176152
      1.86000000	     38.58120868	     11.60796248	     12.83297183	   -233.34499807	    814.18496209	      5.06633689	     15.63651203	     37.83071830	     38.11455095	     45.00000000	    -45.00000000	   2072.85436892	  -1909.31021335	    149.34981548	   -111.50080085	    744.82876903	    159.42775517	     13.56385540	      5.30556910	      9.99465191	    -45.00000000	    -36.31460695	     45.00000000	    -45.00000000	  -1700.94031638	  -1727.12988705	     22.96137605	    -19.11839524	   1444.16045719	   -336.24501609	      9.58156332	    -22.58328118
      1.87000000	     38.52207012	     11.38475732	     12.91509589	   -232.52965261	    813.68284339	      5.12735105	     15.67447646	     37.93695208	     38.18107179	     45.00000000	    -45.00000000	   2073.02609528	  -1909.17390307	    149.40037605	   -111.35949758	    744.90051588	    159.28311497	     13.57183838	      5.27473140	      9.94318125	    -45.00000000	    -36.33387534	     45.00000000	    -45.00000000	  -1701.08691026	  -1727.06588441	     22.95936307	    -19.09141221	   1444.35082788	   -335.81055493	      9.35493561	    -22.65259082
      1.88000000	     38.46455621	     11.30986536	     13.08294207	   -231.61822954	    813.25019893	      5.19875842	     15.71607857	     37.86624869	     38.24143239	     45.00000000	    -45.00000000	   2072.82958793	  -1909.30708246	    149.26238479	   -111.40892422	    744.91995645	    159.15345830	     13.54664342	      5.36569183	      9.88149555	    -45.00000000	    -36.28289136	     45.00000000	    -45.00000000	  -1701.23733462	  -1727.04267617	     23.10001032	    -19.06439548	   1444.40828808	   -335.31616854	      9.14005760	    -22.70914590
      1.89000000	     38.39488422	     11.18890021	     13.34959602	   -230.65223473	    812.88310005	      5.27353675	     15.76670146	     37.96080725	     38.37772869	     45.00000000	    -45.00000000	   2072.99252094	  -1909.20844839	    149.49273105	   -111.30303437	    744.91593169	    158.98105966	     13.55365875	      5.32728258	      9.84415231	    -45.00000000	    -36.06427524	     45.00000000	    -45.00000000	  -1701.44563259	  -1726.85288067	     23.13051618	    -18.94042583	   1444.46656157	   -334.87297878	      8.87127153	    -22.76172535
      1.90000000	     38.38821253	     10.96274505	     13.45398524	   -229.66657828	    812.57335413	      5.34350720	     15.85544304	     37.84549328	     38.44363063	     45.00000000	    -45.00000000	   2072.72706226	  -1909.25803140	    149.16300051	   -111.30349955	    744.91108110	    158.85230414	     13.51514345	      5.41921370	      9.75242300	    -45.00000000	    -36.11904241	     45.00000000	    -45.00000000	  -1701.54406110	  -1726.90163132	     23.22233626	    -18.82383228	   1444.60425925	   -334.41794546	      8.67422431	    -22.85014990
      1.91000000	     38.28841606	     10.92309953	     13.67638782	   -228.69851552	    812.31501790	      5.39984458	     15.79775535	     38.05236431	     38.47149233	     45.00000000	    -45.00000000	   2072.97574216	  -1909.12456543	    149.48845256	   -111.21497779	    744.95413182	    158.68496002	     13.50134177	      5.36741200	      9.80045863	    -45.00000000	    -36.20354752	     45.00000000	    -45.00000000	  -1701.65092708	  -1726.82649932	     23.32979335	    -18.61413078	   1444.66416041	   -333.92547656	      8.41631513	    -22.90273829
      1.92000000	     38.25533910	     10.72068492	     13.78274215	   -227.76942464	    812.10208408	      5.43553084	     15.86871246	     37.78177039	     38.53609500	     45.00000000	    -45.00000000	   2072.66944631	  -1909.25233324	    149.11532255	   -111.28608773	    744.92011896	    158.58786118	     13.46520347	      5.44788413	      9.87676305	    -45.00000000	    -36.25007409	     45.00000000	    -45.00000000	  -1701.76296183	  -1726.82621932	     23.44403934	    -18.43663885	   1444.66531353	   -333.42090989	      8.22947413	    -22.97044127
      1.93000000	     38.15750372	     10.63207836	     13.92159033	   -226.90206659	    811.93477590	      5.44612933	     15.81452193	     38.02711207	     38.41679976	     45.00000000	    -45.00000000	   2072.84199303	  -1909.09714361	    149.16363699	   -111.28999484	    744.97988251	    158.47025294	     13.43781607	      5.42106353	      9.89893802	    -45.00000000	    -36.48819865	     45.00000000	    -45.00000000	  -1701.76603562	  -1726.82514615	     23.56327058	    -18.17782415	   1444.75066392	   -332.84076560	      8.02475886	    -23.03271492
      1.94000000	     38.14983244	     10.53128471	     14.04911076	   -226.09772219	    811.81498192	      5.43150560	     15.74936445	     37.87418390	     38.82566613	     45.00000000	    -45.00000000	   2072.82077104	  -1909.19508664	    149.53594013	   -111.34387817	    744.99294286	    158.39532065	     13.42368411	      5.39807639	     10.09289756	    -45.00000000	    -36.61014363	     45.00000000	    -45.00000000	  -1701.87342664	  -1726.84390539	     23.56402256	    -17.98641256	   1444.75798616	   -332.36386760	      7.83765940	    -23.08689132
      1.95000000	     38.10416560	     10.37705819	     14.09084184	   -225.34293760	    811.74629034	      5.39434292	     15.74620147	     38.03569942	     38.55836975	     45.00000000	    -45.00000000	   2072.80561314	  -1909.05927347	    149.15861460	   -111.48081505	    744.98404048	    158.37284206	     13.39524958	      5.43510393	     10.06967642	    -45.00000000	    -36.75025480	     45.00000000	    -45.00000000	  -1701.83994269	  -1726.79972822	     23.67730954	    -17.85301307	   1444.80052941	   -331.81098897	      7.70710865	    -23.13582160
      1.96000000	     38.14948266	     10.20970058	     14.05113979	   -224.62518958	    811.73558444	      5.33920393	     15.80749608	     37.88508506	     38.84285609	     45.00000000	    -45.00000000	   2072.79723741	  -1909.06925823	    149.36270531	   -111.55202048	    745.07754829	    158.35900219	     13.37652639	      5.37314454	     10.22040765	    -45.00000000	    -37.02684237	     45.00000000	    -45.00000000	  -1701.98224412	  -1726.87512174	     23.60967687	    -17.82180880	   1444.89383797	   -331.43801351	      7.57350885	    -23.19392448
      1.97000000	     38.12745449	     10.18375026	     14.13178131	   -223.90714019	    811.77866176	      5.26794888	     15.80701248	     38.11038060	     38.56420937	     45.00000000	    -45.00000000	   2072.74090742	  -1908.96436160	    149.00145216	   -111.81708151	    744.93792983	    158.40633338	     13.36548536	      5.43261734	     10.21634251	    -45.00000000	    -36.85678823	     45.00000000	    -45.00000000	  -1701.99683251	  -1726.74546225	     23.78912145	    -17.93252427	   1444.90924201	   -331.09860419	      7.47512805	    -23.19443016
      1.98000000	     38.18017219	      9.94501510	     14.10261442	   -223.17156087	    811.88058162	      5.18562342	     15.84713943	     37.97975510	     38.78678687	     45.00000000	    -45.00000000	   2072.77030982	  -1908.99083421	    149.03252070	   -112.08771410	    744.94632250	    158.44297172	     13.36184456	      5.38484299	     10.19088314	    -45.00000000	    -36.86330141	     45.00000000	    -44.96152240	  -1702.07633548	  -1726.66201141	     23.70583830	    -18.16625309	   1445.06483869	   -330.83268396	      7.35868716	    -23.22559389
      1.99000000	     38.21570480	      9.91762621	     14.07793017	   -222.39109988	    812.04185792	      5.09540788	     15.82242995	     38.06202979	     38.88731326	     45.00000000	    -45.00000000	   2072.76290071	  -1908.97144823	    149.13122119	   -112.42239940	    745.03283073	    158.49369307	     13.32893721	      5.37798320	     10.22296934	    -45.00000000	    -37.11603782	     45.00000000	    -44.89618197	  -1702.13662529	  -1726.63937591	     23.60117562	    -18.43917452	   1445.34176617	   -330.71782676	      7.25787698	    -23.24960609
      2.00000000	     38.31109144	      9.75800778	     14.05856034	   -221.55008994	    812.26822388	      5.00304160	     15.86450252	     37.95078059	     38.79848261	     45.00000000	    -45.00000000	   2072.76330696	  -1908.82913284	    148.85256087	   -112.78952214	    744.89978554	    158.56712538	     13.33355321	      5.37896645	     10.32089571	    -45.00000000	    -36.92990760	     45.00000000	    -44.92867028	  -1702.24022513	  -1726.54869359	     23.67626568	    -18.82955832	   1445.37121139	   -330.67319594	      7.17425563	    -23.20711627
